<svg width="250" height="250" viewBox="0 0 250 250" fill="none" xmlns="http://www.w3.org/2000/svg">
<rect width="250" height="250" fill="white"/>
<path d="M75 35.1996V90.1407L124.466 118.083L175.065 90.1407V35.1996L124.466 7.82349L75 35.1996Z" fill="#B4B0DB"/>
<path d="M126.309 104.853V68.8501V104.853Z" fill="black" fill-opacity="0.01"/>
<path d="M126.309 104.853V68.8501" stroke="#FEFEFE" stroke-width="3.62227"/>
<path d="M138.933 92.4831L126.019 82.877L138.933 92.4831Z" fill="black" fill-opacity="0.01"/>
<path d="M138.933 92.4831L126.019 82.877" stroke="#FEFEFE" stroke-width="3.62227"/>
<path d="M113.272 92.9352L126.187 83.3348L113.272 92.9352Z" fill="black" fill-opacity="0.01"/>
<path d="M113.272 92.9352L126.187 83.3348" stroke="#FEFEFE" stroke-width="3.62227"/>
<path d="M118.527 99.2678L120.468 97.7904L126.476 93.2249" fill="black" fill-opacity="0.01"/>
<path d="M118.527 99.2678L120.468 97.7904L126.476 93.2249" stroke="#FEFEFE" stroke-width="3.62227"/>
<path d="M133.881 99.2678L131.94 97.7904L125.938 93.2249" fill="black" fill-opacity="0.01"/>
<path d="M133.881 99.2678L131.94 97.7904L125.938 93.2249" stroke="#FEFEFE" stroke-width="3.62227"/>
<path d="M162.395 84.6877L131.215 66.6863L162.395 84.6877Z" fill="black" fill-opacity="0.01"/>
<path d="M162.395 84.6877L131.215 66.6863" stroke="#FEFEFE" stroke-width="3.62227"/>
<path d="M157.995 67.5695L143.218 73.9507L157.995 67.5695Z" fill="black" fill-opacity="0.01"/>
<path d="M157.995 67.5695L143.218 73.9507" stroke="#FEFEFE" stroke-width="3.62227"/>
<path d="M145.556 90.0186L143.699 74.0341L145.556 90.0186Z" fill="black" fill-opacity="0.01"/>
<path d="M145.556 90.0186L143.699 74.0341" stroke="#FEFEFE" stroke-width="3.62227"/>
<path d="M153.667 88.6339L153.358 86.2143L152.409 78.7283" fill="black" fill-opacity="0.01"/>
<path d="M153.667 88.6339L153.358 86.2143L152.409 78.7283" stroke="#FEFEFE" stroke-width="3.62227"/>
<path d="M161.344 75.3372L159.094 76.2794L152.139 79.1948" fill="black" fill-opacity="0.01"/>
<path d="M161.344 75.3372L159.094 76.2794L152.139 79.1948" stroke="#FEFEFE" stroke-width="3.62227"/>
<path d="M90.0575 84.4646L121.237 66.4631L90.0575 84.4646Z" fill="black" fill-opacity="0.01"/>
<path d="M90.0575 84.4646L121.237 66.4631" stroke="#FEFEFE" stroke-width="3.62227"/>
<path d="M107.082 89.2129L108.944 73.2256L107.082 89.2129Z" fill="black" fill-opacity="0.01"/>
<path d="M107.082 89.2129L108.944 73.2256" stroke="#FEFEFE" stroke-width="3.62227"/>
<path d="M93.8604 67.216L108.632 73.6L93.8604 67.216Z" fill="black" fill-opacity="0.01"/>
<path d="M93.8604 67.216L108.632 73.6" stroke="#FEFEFE" stroke-width="3.62227"/>
<path d="M91.0039 74.9331L93.2539 75.8753L100.212 78.7958" fill="black" fill-opacity="0.01"/>
<path d="M91.0039 74.9331L93.2539 75.8753L100.212 78.7958" stroke="#FEFEFE" stroke-width="3.62227"/>
<path d="M98.6808 88.23L98.9898 85.8104L99.9425 78.3293" fill="black" fill-opacity="0.01"/>
<path d="M98.6808 88.23L98.9898 85.8104L99.9425 78.3293" stroke="#FEFEFE" stroke-width="3.62227"/>
<path d="M90.6957 43.1684L121.875 61.1698" stroke="#FEFEFE" stroke-width="3.62227"/>
<path d="M107.721 38.4199L109.583 54.4072" stroke="#FEFEFE" stroke-width="3.62227"/>
<path d="M94.4989 60.417L109.27 54.0329" stroke="#FEFEFE" stroke-width="3.62227"/>
<path d="M91.6421 52.6996L93.8921 51.7574L100.85 48.8369" stroke="#FEFEFE" stroke-width="3.62227"/>
<path d="M99.319 39.4031L99.628 41.8227L100.581 49.3037" stroke="#FEFEFE" stroke-width="3.62227"/>
<path d="M125.989 22.7917V58.7946V22.7917Z" fill="black" fill-opacity="0.01"/>
<path d="M125.989 22.7917V58.7946" stroke="#FEFEFE" stroke-width="3.62227"/>
<path d="M138.614 35.1616L125.699 44.7678L138.614 35.1616Z" fill="black" fill-opacity="0.01"/>
<path d="M138.614 35.1616L125.699 44.7678" stroke="#FEFEFE" stroke-width="3.62227"/>
<path d="M112.953 34.7096L125.867 44.3099L112.953 34.7096Z" fill="black" fill-opacity="0.01"/>
<path d="M112.953 34.7096L125.867 44.3099" stroke="#FEFEFE" stroke-width="3.62227"/>
<path d="M118.208 28.3768L120.149 29.8543L126.157 34.4198" fill="black" fill-opacity="0.01"/>
<path d="M118.208 28.3768L120.149 29.8543L126.157 34.4198" stroke="#FEFEFE" stroke-width="3.62227"/>
<path d="M133.562 28.3768L131.621 29.8543L125.618 34.4198" fill="black" fill-opacity="0.01"/>
<path d="M133.562 28.3768L131.621 29.8543L125.618 34.4198" stroke="#FEFEFE" stroke-width="3.62227"/>
<path d="M161.738 43.7488L130.558 61.7502L161.738 43.7488Z" fill="black" fill-opacity="0.01"/>
<path d="M161.738 43.7488L130.558 61.7502" stroke="#FAFAFA" stroke-width="3.62227"/>
<path d="M157.338 60.8669L142.561 54.4857L157.338 60.8669Z" fill="black" fill-opacity="0.01"/>
<path d="M157.338 60.8669L142.561 54.4857" stroke="#FAFAFA" stroke-width="3.62227"/>
<path d="M144.899 38.4182L143.042 54.4026L144.899 38.4182Z" fill="black" fill-opacity="0.01"/>
<path d="M144.899 38.4182L143.042 54.4026" stroke="#FAFAFA" stroke-width="3.62227"/>
<path d="M153.01 39.8026L152.701 42.2222L151.751 49.7083" fill="black" fill-opacity="0.01"/>
<path d="M153.01 39.8026L152.701 42.2222L151.751 49.7083" stroke="#FAFAFA" stroke-width="3.62227"/>
<path d="M160.687 53.0996L158.437 52.1574L151.482 49.2419" fill="black" fill-opacity="0.01"/>
<path d="M160.687 53.0996L158.437 52.1574L151.482 49.2419" stroke="#FAFAFA" stroke-width="3.62227"/>
<path d="M121.016 60.9393L126.034 58.0424L131.051 60.9393L131.051 66.7331L126.034 69.6301L121.016 66.7331L121.016 60.9393Z" fill="black" fill-opacity="0.01" stroke="white" stroke-width="3.62227"/>
<path d="M75.1418 23.6474V27.2379L118.247 3.6026L115.317 2L75.1418 23.6474Z" fill="#B4B0DB"/>
<path d="M75.1418 101.919V98.3287L118.247 121.964L115.317 123.567L75.1418 101.919Z" fill="#B4B0DB"/>
<path d="M185 40.4685L181.972 38.8417L182.017 86.7875L185 85.1381V40.4685Z" fill="#B4B0DB"/>
<path d="M20.5039 175.082L19.5742 178.965L10.2227 143.719H12.2461L20.5039 175.082ZM22.5547 167.508L21.543 171.281L14.2969 143.719H16.293L22.5547 167.508ZM24.6055 159.66L23.5664 163.488L18.3438 143.719H20.3945L24.6055 159.66ZM32.3984 189H30.3477L42.3242 143.773L42.2969 143.719H44.375V143.773L49.707 162.148L54.6016 143.719H56.6523L44.6484 189H42.5977L37.2383 170.652L32.3984 189ZM28.2969 189H26.2734L38.25 143.719H40.2734L28.2969 189ZM24.2227 189H22.1992L34.2031 143.719H36.1992L24.2227 189ZM56.8984 189H54.8477L66.8242 143.719H68.875L56.8984 189ZM52.7969 189H50.7734L62.75 143.719H64.7734L52.7969 189ZM48.7227 189H46.6992L58.7031 143.719H60.6992L48.7227 189ZM19.1367 185.117L30.1016 143.719H32.1523L20.1484 189H18.0977L6.12109 143.719H8.17188L19.1367 185.117ZM38.2773 166.797L43.582 185.281L44.6211 181.371L39.2891 162.941L38.2773 166.797ZM40.3008 159.086L45.6328 177.516L46.6719 173.66L41.3398 155.203L40.3008 159.086ZM42.3242 151.43L47.6836 169.859L48.6953 165.977L43.3906 147.492L42.3242 151.43ZM90.9141 161.438H87.6055C86.2018 161.438 85.1901 161.082 84.5703 160.371C83.9505 159.642 83.6406 158.685 83.6406 157.5C83.6406 154.875 85.6003 153.562 89.5195 153.562C93.2018 153.562 95.9727 154.109 97.832 155.203L96.2461 156.406C94.9701 155.823 92.7279 155.531 89.5195 155.531C87.9518 155.531 86.8945 155.704 86.3477 156.051C85.819 156.397 85.5547 156.88 85.5547 157.5C85.5547 158.12 85.7005 158.603 85.9922 158.949C86.2839 159.296 86.8216 159.469 87.6055 159.469H90.9961C93.457 159.469 95.6719 159.888 97.6406 160.727C99.6276 161.565 101.259 162.714 102.535 164.172C103.811 165.612 104.786 167.28 105.461 169.176C106.135 171.053 106.473 173.068 106.473 175.219C106.473 176.969 106.227 178.628 105.734 180.195C105.242 181.763 104.495 183.203 103.492 184.516C102.508 185.828 101.314 186.967 99.9102 187.934C98.5247 188.882 96.8659 189.62 94.9336 190.148C93.0195 190.695 90.9414 190.969 88.6992 190.969C85.181 190.969 81.8815 190.431 78.8008 189.355C75.7383 188.298 73.1862 186.812 71.1445 184.898L72.7305 183.723C74.5898 185.4 76.9141 186.703 79.7031 187.633C82.5104 188.544 85.5091 189 88.6992 189C91.1966 189 93.4479 188.645 95.4531 187.934C97.4766 187.204 99.1354 186.211 100.43 184.953C101.742 183.695 102.745 182.237 103.438 180.578C104.148 178.919 104.504 177.133 104.504 175.219C104.504 172.685 103.993 170.397 102.973 168.355C101.952 166.296 100.393 164.628 98.2969 163.352C96.2188 162.076 93.7578 161.438 90.9141 161.438ZM87.6055 163.406H90.7227C94.4232 163.406 97.3125 164.536 99.3906 166.797C101.487 169.057 102.535 171.865 102.535 175.219C102.535 178.628 101.323 181.453 98.8984 183.695C96.474 185.919 93.0742 187.031 88.6992 187.031C85.7826 187.031 83.0573 186.63 80.5234 185.828C77.9896 185.026 75.8841 183.896 74.207 182.438L75.7383 181.207C77.2331 182.428 79.1107 183.376 81.3711 184.051C83.6497 184.725 86.0924 185.062 88.6992 185.062C92.5456 185.062 95.4805 184.142 97.5039 182.301C99.5456 180.46 100.566 178.099 100.566 175.219C100.566 172.375 99.7096 170.023 97.9961 168.164C96.3008 166.305 93.8672 165.375 90.6953 165.375H87.6055C84.944 165.375 82.9479 164.646 81.6172 163.188C80.2865 161.729 79.6211 159.833 79.6211 157.5C79.6211 155.167 80.4414 153.271 82.082 151.812C83.7409 150.354 86.2201 149.625 89.5195 149.625C91.8346 149.625 93.9857 149.898 95.9727 150.445C97.9596 150.974 99.6003 151.74 100.895 152.742L99.3359 153.945C97.0573 152.378 93.7852 151.594 89.5195 151.594C86.7669 151.594 84.7526 152.141 83.4766 153.234C82.2188 154.31 81.5898 155.732 81.5898 157.5C81.5898 159.286 82.0547 160.717 82.9844 161.793C83.9323 162.868 85.4727 163.406 87.6055 163.406ZM87.6055 167.344H90.6133C93.2747 167.344 95.2708 168.082 96.6016 169.559C97.9323 171.035 98.5977 172.922 98.5977 175.219C98.5977 177.552 97.7682 179.448 96.1094 180.906C94.4688 182.365 91.9987 183.094 88.6992 183.094C86.3841 183.094 84.224 182.829 82.2188 182.301C80.2318 181.754 78.5911 180.979 77.2969 179.977L78.8555 178.773C81.1341 180.341 84.4154 181.125 88.6992 181.125C91.4518 181.125 93.457 180.587 94.7148 179.512C95.9909 178.418 96.6289 176.987 96.6289 175.219C96.6289 173.451 96.1549 172.029 95.207 170.953C94.2591 169.859 92.7188 169.312 90.5859 169.312H87.6055C83.8685 169.312 80.9427 168.201 78.8281 165.977C76.7318 163.734 75.6836 160.909 75.6836 157.5C75.6836 154.091 76.8958 151.275 79.3203 149.051C81.7448 146.809 85.1445 145.688 89.5195 145.688C92.4362 145.688 95.1523 146.089 97.668 146.891C100.202 147.693 102.307 148.823 103.984 150.281L102.453 151.512C100.958 150.29 99.0807 149.342 96.8203 148.668C94.5599 147.993 92.1263 147.656 89.5195 147.656C85.6732 147.656 82.7292 148.577 80.6875 150.418C78.6641 152.259 77.6523 154.62 77.6523 157.5C77.6523 160.362 78.5091 162.723 80.2227 164.582C81.9362 166.423 84.3971 167.344 87.6055 167.344ZM87.6055 171.281H90.6133C92.0169 171.281 93.0286 171.646 93.6484 172.375C94.2682 173.104 94.5781 174.052 94.5781 175.219C94.5781 177.844 92.6185 179.156 88.6992 179.156C84.9987 179.156 82.2188 178.609 80.3594 177.516L81.9453 176.312C83.2214 176.896 85.4727 177.188 88.6992 177.188C90.2669 177.188 91.3151 177.014 91.8438 176.668C92.3906 176.322 92.6641 175.839 92.6641 175.219C92.6641 174.617 92.5091 174.143 92.1992 173.797C91.9076 173.432 91.3607 173.25 90.5586 173.25H87.6055C85.0898 173.25 82.8112 172.84 80.7695 172.02C78.7461 171.199 77.0781 170.069 75.7656 168.629C74.4714 167.189 73.4779 165.521 72.7852 163.625C72.0924 161.729 71.7461 159.688 71.7461 157.5C71.7461 155.75 71.9922 154.091 72.4844 152.523C72.9766 150.956 73.7148 149.516 74.6992 148.203C75.7018 146.891 76.8958 145.76 78.2812 144.812C79.6849 143.846 81.3438 143.099 83.2578 142.57C85.1901 142.023 87.2773 141.75 89.5195 141.75C93.0378 141.75 96.3281 142.288 99.3906 143.363C102.453 144.421 105.005 145.906 107.047 147.82L105.461 148.996C103.602 147.319 101.277 146.025 98.4883 145.113C95.6992 144.184 92.7096 143.719 89.5195 143.719C87.0221 143.719 84.7617 144.083 82.7383 144.812C80.7331 145.523 79.0742 146.508 77.7617 147.766C76.4674 149.023 75.4648 150.482 74.7539 152.141C74.0612 153.799 73.7148 155.586 73.7148 157.5C73.7148 160.07 74.2344 162.385 75.2734 164.445C76.3125 166.505 77.8984 168.164 80.0312 169.422C82.1641 170.661 84.6888 171.281 87.6055 171.281ZM145.027 159.195L143.414 160.262C142.43 158.803 141.145 157.655 139.559 156.816C137.991 155.96 136.286 155.531 134.445 155.531C131.456 155.531 128.904 156.589 126.789 158.703C124.674 160.818 123.617 163.37 123.617 166.359C123.617 169.349 124.674 171.901 126.789 174.016C128.904 176.13 131.456 177.188 134.445 177.188C136.286 177.188 137.991 176.759 139.559 175.902C141.145 175.046 142.43 173.888 143.414 172.43L145 173.578C143.833 175.292 142.32 176.65 140.461 177.652C138.602 178.655 136.596 179.156 134.445 179.156C132.714 179.156 131.055 178.819 129.469 178.145C127.901 177.47 126.543 176.559 125.395 175.41C124.246 174.262 123.335 172.904 122.66 171.336C121.986 169.75 121.648 168.091 121.648 166.359C121.648 164.628 121.986 162.978 122.66 161.41C123.335 159.824 124.246 158.457 125.395 157.309C126.543 156.16 127.901 155.249 129.469 154.574C131.055 153.9 132.714 153.562 134.445 153.562C136.615 153.562 138.629 154.073 140.488 155.094C142.348 156.096 143.861 157.464 145.027 159.195ZM148.281 156.953L146.641 158.02C145.292 156.051 143.542 154.492 141.391 153.344C139.258 152.177 136.943 151.594 134.445 151.594C131.766 151.594 129.296 152.259 127.035 153.59C124.775 154.902 122.979 156.689 121.648 158.949C120.336 161.21 119.68 163.68 119.68 166.359C119.68 169.039 120.336 171.509 121.648 173.77C122.979 176.03 124.775 177.826 127.035 179.156C129.296 180.469 131.766 181.125 134.445 181.125C136.943 181.125 139.267 180.542 141.418 179.375C143.569 178.208 145.319 176.632 146.668 174.645L148.281 175.766C146.75 178.026 144.763 179.812 142.32 181.125C139.896 182.438 137.271 183.094 134.445 183.094C131.419 183.094 128.621 182.346 126.051 180.852C123.48 179.357 121.448 177.324 119.953 174.754C118.458 172.184 117.711 169.385 117.711 166.359C117.711 163.333 118.458 160.535 119.953 157.965C121.448 155.395 123.48 153.362 126.051 151.867C128.621 150.372 131.419 149.625 134.445 149.625C137.271 149.625 139.896 150.281 142.32 151.594C144.763 152.906 146.75 154.693 148.281 156.953ZM151.562 154.766L149.922 155.832C148.208 153.316 145.984 151.329 143.25 149.871C140.534 148.395 137.599 147.656 134.445 147.656C131.911 147.656 129.487 148.148 127.172 149.133C124.857 150.117 122.861 151.448 121.184 153.125C119.525 154.784 118.203 156.771 117.219 159.086C116.234 161.401 115.742 163.826 115.742 166.359C115.742 168.893 116.234 171.318 117.219 173.633C118.203 175.948 119.525 177.944 121.184 179.621C122.861 181.28 124.857 182.602 127.172 183.586C129.487 184.57 131.911 185.062 134.445 185.062C137.617 185.062 140.561 184.324 143.277 182.848C145.993 181.371 148.208 179.375 149.922 176.859L151.508 178.035C149.612 180.806 147.16 183.003 144.152 184.625C141.163 186.229 137.927 187.031 134.445 187.031C130.708 187.031 127.254 186.111 124.082 184.27C120.91 182.41 118.395 179.895 116.535 176.723C114.694 173.551 113.773 170.096 113.773 166.359C113.773 162.622 114.694 159.168 116.535 155.996C118.395 152.824 120.91 150.318 124.082 148.477C127.254 146.617 130.708 145.688 134.445 145.688C137.945 145.688 141.199 146.508 144.207 148.148C147.215 149.771 149.667 151.977 151.562 154.766ZM154.789 152.523L153.148 153.59C151.07 150.546 148.382 148.139 145.082 146.371C141.801 144.603 138.255 143.719 134.445 143.719C131.383 143.719 128.448 144.32 125.641 145.523C122.852 146.708 120.445 148.312 118.422 150.336C116.398 152.359 114.785 154.775 113.582 157.582C112.397 160.371 111.805 163.297 111.805 166.359C111.805 169.422 112.397 172.357 113.582 175.164C114.785 177.953 116.398 180.359 118.422 182.383C120.445 184.406 122.852 186.02 125.641 187.223C128.448 188.408 131.383 189 134.445 189C138.255 189 141.81 188.107 145.109 186.32C148.409 184.534 151.098 182.118 153.176 179.074L154.762 180.277C152.501 183.559 149.585 186.165 146.012 188.098C142.439 190.012 138.583 190.969 134.445 190.969C131.109 190.969 127.919 190.312 124.875 189C121.849 187.706 119.233 185.965 117.027 183.777C114.84 181.572 113.09 178.956 111.777 175.93C110.483 172.885 109.836 169.695 109.836 166.359C109.836 163.023 110.483 159.842 111.777 156.816C113.09 153.772 114.84 151.156 117.027 148.969C119.233 146.763 121.849 145.013 124.875 143.719C127.919 142.406 131.109 141.75 134.445 141.75C138.602 141.75 142.466 142.716 146.039 144.648C149.612 146.581 152.529 149.206 154.789 152.523ZM158.508 163.406V161.438H180.164V163.406H158.508ZM158.508 167.344V165.375H180.164V167.344H158.508ZM158.508 171.281V169.312H180.164V171.281H158.508ZM184.129 153.562V151.594H203.98V189H202.012V153.562H200.043V189H198.074V153.562H196.105V189H194.137V153.562H192.168V189H190.199V153.562H184.129ZM184.129 149.625V147.656H203.98V149.625H184.129ZM184.129 145.688V143.719H203.98V145.688H184.129ZM239.473 151.594V153.562H219.375V172.648H217.406V153.562H215.438V172.648H213.469V153.562H211.5V172.648H209.531V151.594H239.473ZM239.473 147.656V149.625H209.531V147.656H239.473ZM239.473 143.719V145.688H209.531V143.719H239.473ZM224.516 177.16C228.125 177.16 229.93 176.358 229.93 174.754C229.93 173.824 229.51 173.15 228.672 172.73C227.833 172.311 226.767 172.102 225.473 172.102C223.467 172.102 221.872 172.339 220.688 172.812V170.844C222.273 170.461 223.878 170.27 225.5 170.27C226.667 170.27 227.706 170.406 228.617 170.68C229.547 170.953 230.322 171.436 230.941 172.129C231.579 172.822 231.898 173.697 231.898 174.754C231.898 176.212 231.206 177.306 229.82 178.035C228.453 178.764 226.685 179.129 224.516 179.129C221.143 179.129 218.573 178.582 216.805 177.488L218.391 176.285C219.576 176.868 221.617 177.16 224.516 177.16ZM224.516 181.098C227.214 181.098 229.447 180.542 231.215 179.43C232.983 178.318 233.867 176.759 233.867 174.754C233.867 172.712 233.102 171.145 231.57 170.051C230.039 168.939 228.18 168.383 225.992 168.383C224.315 168.383 222.547 168.592 220.688 169.012V166.934C222.93 166.66 224.707 166.523 226.02 166.523C228.754 166.523 231.069 167.262 232.965 168.738C234.879 170.197 235.836 172.202 235.836 174.754C235.836 177.324 234.76 179.357 232.609 180.852C230.458 182.328 227.76 183.066 224.516 183.066C219.885 183.066 216.294 182.027 213.742 179.949L215.301 178.746C217.47 180.314 220.542 181.098 224.516 181.098ZM224.516 185.035C228.289 185.035 231.443 184.105 233.977 182.246C236.529 180.368 237.805 177.871 237.805 174.754C237.805 172.639 237.258 170.798 236.164 169.23C235.089 167.663 233.703 166.505 232.008 165.758C230.312 165.01 228.444 164.637 226.402 164.637C224.379 164.637 222.474 164.792 220.688 165.102V163.105C222.802 162.868 224.725 162.75 226.457 162.75C228.882 162.75 231.105 163.26 233.129 164.281C235.171 165.302 236.784 166.733 237.969 168.574C239.172 170.415 239.773 172.475 239.773 174.754C239.773 177.178 239.081 179.339 237.695 181.234C236.328 183.112 234.487 184.543 232.172 185.527C229.875 186.512 227.323 187.004 224.516 187.004C221.708 187.004 219.102 186.603 216.695 185.801C214.289 184.999 212.275 183.868 210.652 182.41L212.184 181.18C213.642 182.419 215.438 183.376 217.57 184.051C219.721 184.707 222.036 185.035 224.516 185.035ZM224.516 188.973C226.867 188.973 229.091 188.635 231.188 187.961C233.302 187.268 235.134 186.311 236.684 185.09C238.233 183.868 239.464 182.365 240.375 180.578C241.286 178.792 241.742 176.85 241.742 174.754C241.742 172.676 241.323 170.743 240.484 168.957C239.646 167.171 238.534 165.694 237.148 164.527C235.763 163.342 234.186 162.422 232.418 161.766C230.668 161.109 228.863 160.781 227.004 160.781C226.056 160.781 225.263 160.809 224.625 160.863C223.987 160.9 223.267 160.982 222.465 161.109C221.663 161.219 221.07 161.292 220.688 161.328V159.305C222.474 159.049 224.616 158.922 227.113 158.922C229.283 158.922 231.37 159.305 233.375 160.07C235.38 160.818 237.148 161.866 238.68 163.215C240.211 164.546 241.432 166.214 242.344 168.219C243.255 170.224 243.711 172.402 243.711 174.754C243.711 177.124 243.201 179.329 242.18 181.371C241.177 183.395 239.81 185.108 238.078 186.512C236.346 187.897 234.305 188.982 231.953 189.766C229.62 190.549 227.141 190.941 224.516 190.941C221.107 190.941 217.926 190.404 214.973 189.328C212.038 188.271 209.577 186.785 207.59 184.871L209.176 183.695C210.98 185.372 213.214 186.676 215.875 187.605C218.555 188.517 221.435 188.973 224.516 188.973Z" fill="#5C52B9"/>
<path d="M92.0625 221.176C88.8008 221.176 87.1699 219.691 87.1699 216.723V207.416H88.9375V216.254C88.9375 217.471 89.2174 218.367 89.7773 218.939C90.3372 219.512 91.0762 219.799 91.9941 219.799C93.8496 219.799 94.7773 218.529 94.7773 215.99V207.416H96.4473V216.42C96.4473 217.859 96.0632 219.011 95.2949 219.877C94.5267 220.743 93.4492 221.176 92.0625 221.176ZM99.2891 211.84H106.887L101.525 219.75H107.043V221H98.8594L104.221 213.09H99.2891V211.84ZM113.498 212.914C112.437 212.914 111.561 213.5 110.871 214.672V219.555C111.249 219.796 111.753 219.916 112.385 219.916C114.09 219.916 115.188 219.161 115.676 217.65C115.812 217.208 115.881 216.71 115.881 216.156C115.881 215.596 115.809 215.095 115.666 214.652C115.432 213.884 114.992 213.36 114.348 213.08C114.081 212.969 113.798 212.914 113.498 212.914ZM110.871 212.914C111.294 212.439 111.724 212.113 112.16 211.938C112.596 211.755 113.075 211.664 113.596 211.664C114.65 211.664 115.542 212.022 116.271 212.738C116.636 213.096 116.923 213.581 117.131 214.193C117.346 214.799 117.453 215.453 117.453 216.156C117.453 218.012 116.76 219.418 115.373 220.375C114.585 220.909 113.739 221.176 112.834 221.176C111.512 221.176 110.334 220.857 109.299 220.219V206.596H110.871V212.914ZM122.932 212.914C122.027 212.914 121.35 213.188 120.9 213.734C120.588 214.112 120.383 214.646 120.285 215.336H125.021C124.963 214.626 124.751 214.044 124.387 213.588C124.016 213.139 123.531 212.914 122.932 212.914ZM126.232 220.463C125.529 220.938 124.579 221.176 123.381 221.176C121.864 221.176 120.695 220.743 119.875 219.877C119.055 219.011 118.645 217.859 118.645 216.42C118.645 214.545 119.253 213.188 120.471 212.348C121.148 211.892 121.903 211.664 122.736 211.664C124.025 211.664 125.002 212.1 125.666 212.973C126.226 213.721 126.525 214.704 126.564 215.922L126.33 216.508H120.217C120.23 217.589 120.52 218.428 121.086 219.027C121.652 219.62 122.408 219.916 123.352 219.916C124.068 219.916 124.888 219.724 125.812 219.34L126.232 220.463ZM130.402 221H128.83V206.596H130.402V214.906L133.518 211.84H135.471L131.701 215.512L136.145 221H134.201L130.402 216.322V221ZM140.109 211.84V221H138.537V213.09H136.916V211.84H140.109ZM138.166 208.217C138.166 207.891 138.277 207.615 138.498 207.387C138.726 207.152 138.999 207.035 139.318 207.035C139.637 207.035 139.908 207.152 140.129 207.387C140.357 207.615 140.471 207.891 140.471 208.217C140.471 208.542 140.357 208.822 140.129 209.057C139.908 209.285 139.637 209.398 139.318 209.398C138.999 209.398 138.726 209.285 138.498 209.057C138.277 208.822 138.166 208.542 138.166 208.217ZM145.451 219.916C146.577 219.916 147.141 219.431 147.141 218.461C147.141 217.875 146.604 217.406 145.529 217.055L144.572 216.723C143.889 216.482 143.381 216.14 143.049 215.697C142.723 215.248 142.561 214.721 142.561 214.115C142.561 213.503 142.844 212.943 143.41 212.436C143.977 211.921 144.702 211.664 145.588 211.664C146.174 211.664 146.695 211.742 147.15 211.898C147.606 212.048 147.958 212.221 148.205 212.416L147.648 213.588C147.447 213.425 147.16 213.272 146.789 213.129C146.418 212.986 146.018 212.914 145.588 212.914C145.165 212.914 144.816 213.041 144.543 213.295C144.27 213.549 144.133 213.832 144.133 214.145C144.133 214.457 144.237 214.717 144.445 214.926C144.654 215.134 145.074 215.349 145.705 215.57L146.662 215.902C147.359 216.143 147.876 216.459 148.215 216.85C148.547 217.247 148.713 217.82 148.713 218.568C148.713 219.317 148.426 219.939 147.854 220.434C147.281 220.928 146.499 221.176 145.51 221.176C144.982 221.176 144.475 221.12 143.986 221.01C143.505 220.906 142.964 220.681 142.365 220.336L142.932 219.125C143.433 219.424 143.859 219.633 144.211 219.75C144.562 219.861 144.976 219.916 145.451 219.916ZM153.381 221.176C151.831 221.176 151.057 220.316 151.057 218.598V213.09H149.436V211.84H151.057V209.984L152.629 209.398V211.84H154.865V213.09H152.629V218.5C152.629 219.001 152.756 219.363 153.01 219.584C153.264 219.799 153.547 219.906 153.859 219.906C154.465 219.906 154.937 219.854 155.275 219.75L155.471 220.854C154.872 221.068 154.175 221.176 153.381 221.176ZM161.809 216.879C159.413 216.879 158.215 217.475 158.215 218.666C158.215 218.985 158.312 219.281 158.508 219.555C158.71 219.828 158.938 219.965 159.191 219.965H159.572C161.005 219.965 161.77 219.213 161.867 217.709V216.879H161.809ZM157.316 212.279C158.488 211.869 159.449 211.664 160.197 211.664C160.946 211.664 161.6 211.85 162.16 212.221C162.72 212.592 163.094 213.142 163.283 213.871C163.387 214.281 163.439 215.118 163.439 216.381V219.438C163.439 220.01 163.485 220.531 163.576 221H161.994C161.91 220.733 161.867 220.43 161.867 220.092V220.023C161.704 220.219 161.525 220.388 161.33 220.531C160.718 220.98 160.067 221.205 159.377 221.205C158.218 221.205 157.421 220.792 156.984 219.965C156.757 219.555 156.643 219.135 156.643 218.705C156.643 217.566 157.31 216.742 158.645 216.234C159.445 215.928 160.461 215.775 161.691 215.775H161.867V214.789C161.867 214.073 161.73 213.585 161.457 213.324C161.138 213.025 160.607 212.875 159.865 212.875C159.123 212.875 158.299 213.083 157.395 213.5L157.316 212.279ZM172.404 216.049C172.404 213.959 171.656 212.914 170.158 212.914C169.774 212.914 169.423 213.018 169.104 213.227C168.615 213.539 168.231 214.053 167.951 214.77C167.854 215.017 167.805 215.212 167.805 215.355V221H166.232V211.84H167.805V213.52C168.391 212.283 169.344 211.664 170.666 211.664C171.2 211.664 171.678 211.785 172.102 212.025C172.531 212.26 172.867 212.514 173.107 212.787C173.687 213.432 173.977 214.337 173.977 215.502V221H172.404V216.049ZM51.9062 236.279C51.5807 235.986 51.0632 235.84 50.3535 235.84C49.6504 235.84 48.8757 236.113 48.0293 236.66L47.4434 235.635C47.7624 235.374 48.1888 235.133 48.7227 234.912C49.263 234.691 49.8457 234.58 50.4707 234.58C51.5319 234.58 52.3783 234.814 53.0098 235.283C53.6478 235.752 53.9668 236.452 53.9668 237.383C53.9668 238.405 53.3288 239.59 52.0527 240.938C51.8509 241.159 51.5775 241.445 51.2324 241.797L49.3184 243.75H54.3965V245H47.4434V243.75L49.3574 241.797C49.7155 241.426 50.0475 241.087 50.3535 240.781C51.3757 239.74 52.0039 238.88 52.2383 238.203C52.3359 237.917 52.3848 237.601 52.3848 237.256C52.3848 236.904 52.2253 236.579 51.9062 236.279ZM62.5508 237.705C62.5508 238.91 61.9616 239.837 60.7832 240.488C61.6165 240.807 62.2318 241.25 62.6289 241.816C63.0391 242.441 63.2441 243.239 63.2441 244.209C63.2441 245.374 62.847 246.361 62.0527 247.168C61.2324 248.001 60.1908 248.418 58.9277 248.418C57.6712 248.418 56.6621 248.118 55.9004 247.52L56.5352 246.504C57.1862 246.94 57.9349 247.158 58.7812 247.158C59.6341 247.158 60.3242 246.872 60.8516 246.299C61.3854 245.732 61.6523 245.01 61.6523 244.131C61.6523 243.252 61.3561 242.559 60.7637 242.051C60.1712 241.543 59.4616 241.289 58.6348 241.289H57.834V240.039H58.3613C58.9603 240.039 59.5267 239.87 60.0605 239.531C60.3275 239.362 60.5423 239.118 60.7051 238.799C60.8743 238.48 60.959 238.138 60.959 237.773C60.959 237.083 60.7311 236.576 60.2754 236.25C59.8457 235.97 59.3509 235.83 58.791 235.83C58.2376 235.83 57.6257 235.977 56.9551 236.27L56.5449 235.176C56.877 235.007 57.2708 234.867 57.7266 234.756C58.1823 234.639 58.638 234.58 59.0938 234.58C59.5495 234.58 59.9954 234.645 60.4316 234.775C61.2064 235.003 61.7695 235.417 62.1211 236.016C62.4076 236.491 62.5508 237.054 62.5508 237.705ZM70.5098 240.615H64.3672V239.551H70.5098V240.615ZM76.5938 236.279C76.2682 235.986 75.7507 235.84 75.041 235.84C74.3379 235.84 73.5632 236.113 72.7168 236.66L72.1309 235.635C72.4499 235.374 72.8763 235.133 73.4102 234.912C73.9505 234.691 74.5332 234.58 75.1582 234.58C76.2194 234.58 77.0658 234.814 77.6973 235.283C78.3353 235.752 78.6543 236.452 78.6543 237.383C78.6543 238.405 78.0163 239.59 76.7402 240.938C76.5384 241.159 76.265 241.445 75.9199 241.797L74.0059 243.75H79.084V245H72.1309V243.75L74.0449 241.797C74.403 241.426 74.735 241.087 75.041 240.781C76.0632 239.74 76.6914 238.88 76.9258 238.203C77.0234 237.917 77.0723 237.601 77.0723 237.256C77.0723 236.904 76.9128 236.579 76.5938 236.279ZM83.9375 238.789L85.5488 236.006H80.5781V234.756H87.7656L86.1641 237.539C85.3047 239.03 84.6048 240.658 84.0645 242.422C83.5306 244.186 83.1823 245.882 83.0195 247.51H81.4473C81.584 246.09 81.9062 244.505 82.4141 242.754C82.9219 241.003 83.4297 239.681 83.9375 238.789ZM97.1406 238.711V245H95.373V231.416H103.137V232.773H97.1406V237.344H101.223V238.711H97.1406ZM108.264 236.914C107.359 236.914 106.682 237.188 106.232 237.734C105.92 238.112 105.715 238.646 105.617 239.336H110.354C110.295 238.626 110.083 238.044 109.719 237.588C109.348 237.139 108.863 236.914 108.264 236.914ZM111.564 244.463C110.861 244.938 109.911 245.176 108.713 245.176C107.196 245.176 106.027 244.743 105.207 243.877C104.387 243.011 103.977 241.859 103.977 240.42C103.977 238.545 104.585 237.188 105.803 236.348C106.48 235.892 107.235 235.664 108.068 235.664C109.357 235.664 110.334 236.1 110.998 236.973C111.558 237.721 111.857 238.704 111.896 239.922L111.662 240.508H105.549C105.562 241.589 105.852 242.428 106.418 243.027C106.984 243.62 107.74 243.916 108.684 243.916C109.4 243.916 110.22 243.724 111.145 243.34L111.564 244.463ZM118.361 236.914C117.3 236.914 116.424 237.5 115.734 238.672V243.555C116.112 243.796 116.617 243.916 117.248 243.916C118.954 243.916 120.051 243.161 120.539 241.65C120.676 241.208 120.744 240.71 120.744 240.156C120.744 239.596 120.673 239.095 120.529 238.652C120.295 237.884 119.855 237.36 119.211 237.08C118.944 236.969 118.661 236.914 118.361 236.914ZM115.734 236.914C116.158 236.439 116.587 236.113 117.023 235.938C117.46 235.755 117.938 235.664 118.459 235.664C119.514 235.664 120.406 236.022 121.135 236.738C121.499 237.096 121.786 237.581 121.994 238.193C122.209 238.799 122.316 239.453 122.316 240.156C122.316 242.012 121.623 243.418 120.236 244.375C119.449 244.909 118.602 245.176 117.697 245.176C116.376 245.176 115.197 244.857 114.162 244.219V230.596H115.734V236.914ZM124.514 245V235.84H126.086V237.52C126.32 237.012 126.652 236.576 127.082 236.211C127.518 235.846 128.01 235.664 128.557 235.664C129.11 235.664 129.562 235.762 129.914 235.957C130.272 236.146 130.51 236.348 130.627 236.562L129.963 237.559C129.872 237.441 129.784 237.344 129.699 237.266C129.458 237.031 129.104 236.914 128.635 236.914C128.166 236.914 127.743 237.064 127.365 237.363C126.988 237.669 126.688 238.04 126.467 238.477C126.245 238.913 126.118 239.349 126.086 239.785V245H124.514ZM138.791 243.32C138.205 244.557 137.251 245.176 135.93 245.176C135.396 245.176 134.914 245.059 134.484 244.824C134.061 244.583 133.726 244.326 133.479 244.053C133.238 243.779 133.036 243.408 132.873 242.939C132.704 242.471 132.619 241.937 132.619 241.338V235.84H134.191V240.791C134.191 242.881 134.94 243.926 136.438 243.926C136.822 243.926 137.173 243.822 137.492 243.613C137.98 243.301 138.365 242.786 138.645 242.07C138.742 241.823 138.791 241.628 138.791 241.484V235.84H140.363V245H138.791V243.32ZM147.883 240.879C145.487 240.879 144.289 241.475 144.289 242.666C144.289 242.985 144.387 243.281 144.582 243.555C144.784 243.828 145.012 243.965 145.266 243.965H145.646C147.079 243.965 147.844 243.213 147.941 241.709V240.879H147.883ZM143.391 236.279C144.562 235.869 145.523 235.664 146.271 235.664C147.02 235.664 147.674 235.85 148.234 236.221C148.794 236.592 149.169 237.142 149.357 237.871C149.462 238.281 149.514 239.118 149.514 240.381V243.438C149.514 244.01 149.559 244.531 149.65 245H148.068C147.984 244.733 147.941 244.43 147.941 244.092V244.023C147.779 244.219 147.6 244.388 147.404 244.531C146.792 244.98 146.141 245.205 145.451 245.205C144.292 245.205 143.495 244.792 143.059 243.965C142.831 243.555 142.717 243.135 142.717 242.705C142.717 241.566 143.384 240.742 144.719 240.234C145.52 239.928 146.535 239.775 147.766 239.775H147.941V238.789C147.941 238.073 147.805 237.585 147.531 237.324C147.212 237.025 146.682 236.875 145.939 236.875C145.197 236.875 144.374 237.083 143.469 237.5L143.391 236.279ZM152.307 245V235.84H153.879V237.52C154.113 237.012 154.445 236.576 154.875 236.211C155.311 235.846 155.803 235.664 156.35 235.664C156.903 235.664 157.355 235.762 157.707 235.957C158.065 236.146 158.303 236.348 158.42 236.562L157.756 237.559C157.665 237.441 157.577 237.344 157.492 237.266C157.251 237.031 156.896 236.914 156.428 236.914C155.959 236.914 155.536 237.064 155.158 237.363C154.781 237.669 154.481 238.04 154.26 238.477C154.038 238.913 153.911 239.349 153.879 239.785V245H152.307ZM159.367 248.145C159.712 248.438 160.002 248.584 160.236 248.584C160.633 248.584 160.982 248.408 161.281 248.057C161.691 247.594 162.128 246.865 162.59 245.869C162.714 245.602 162.863 245.277 163.039 244.893L159.045 235.84H160.734L163.889 242.979L167.053 235.84H168.635L164.592 244.824C163.498 247.337 162.561 248.874 161.779 249.434C161.389 249.707 160.91 249.844 160.344 249.844C159.777 249.844 159.263 249.596 158.801 249.102L159.367 248.145ZM179.875 236.279C179.549 235.986 179.032 235.84 178.322 235.84C177.619 235.84 176.844 236.113 175.998 236.66L175.412 235.635C175.731 235.374 176.158 235.133 176.691 234.912C177.232 234.691 177.814 234.58 178.439 234.58C179.501 234.58 180.347 234.814 180.979 235.283C181.617 235.752 181.936 236.452 181.936 237.383C181.936 238.405 181.298 239.59 180.021 240.938C179.82 241.159 179.546 241.445 179.201 241.797L177.287 243.75H182.365V245H175.412V243.75L177.326 241.797C177.684 241.426 178.016 241.087 178.322 240.781C179.344 239.74 179.973 238.88 180.207 238.203C180.305 237.917 180.354 237.601 180.354 237.256C180.354 236.904 180.194 236.579 179.875 236.279ZM189.533 243.916C190.249 243.916 190.926 243.734 191.564 243.369C192.3 242.952 192.821 242.318 193.127 241.465C193.296 240.996 193.381 240.469 193.381 239.883C193.381 238.737 193.081 237.819 192.482 237.129C191.949 236.543 191.301 236.152 190.539 235.957C190.201 235.879 189.865 235.84 189.533 235.84C188.348 235.84 187.365 236.27 186.584 237.129C185.985 237.799 185.686 238.717 185.686 239.883C185.686 240.469 185.77 240.996 185.939 241.465C186.232 242.311 186.753 242.946 187.502 243.369C188.127 243.734 188.804 243.916 189.533 243.916ZM189.533 234.58C190.562 234.58 191.522 234.818 192.414 235.293C193.456 235.846 194.185 236.68 194.602 237.793C194.836 238.418 194.953 239.115 194.953 239.883C194.953 240.651 194.836 241.348 194.602 241.973C194.185 243.079 193.456 243.91 192.414 244.463C191.522 244.938 190.562 245.176 189.533 245.176C188.505 245.176 187.544 244.938 186.652 244.463C185.611 243.91 184.882 243.076 184.465 241.963C184.23 241.344 184.113 240.651 184.113 239.883C184.113 239.108 184.23 238.411 184.465 237.793C184.882 236.68 185.611 235.846 186.652 235.293C187.544 234.818 188.505 234.58 189.533 234.58ZM200.891 236.279C200.565 235.986 200.048 235.84 199.338 235.84C198.635 235.84 197.86 236.113 197.014 236.66L196.428 235.635C196.747 235.374 197.173 235.133 197.707 234.912C198.247 234.691 198.83 234.58 199.455 234.58C200.516 234.58 201.363 234.814 201.994 235.283C202.632 235.752 202.951 236.452 202.951 237.383C202.951 238.405 202.313 239.59 201.037 240.938C200.835 241.159 200.562 241.445 200.217 241.797L198.303 243.75H203.381V245H196.428V243.75L198.342 241.797C198.7 241.426 199.032 241.087 199.338 240.781C200.36 239.74 200.988 238.88 201.223 238.203C201.32 237.917 201.369 237.601 201.369 237.256C201.369 236.904 201.21 236.579 200.891 236.279ZM209.758 243.916C210.337 243.916 210.874 243.678 211.369 243.203C211.87 242.728 212.134 242.067 212.16 241.221V241.055C212.16 240.215 211.916 239.554 211.428 239.072C210.946 238.59 210.301 238.35 209.494 238.35C208.472 238.35 207.587 238.704 206.838 239.414C206.805 239.622 206.789 239.932 206.789 240.342C206.789 240.745 206.857 241.188 206.994 241.67C207.131 242.152 207.3 242.529 207.502 242.803C207.71 243.076 207.951 243.301 208.225 243.477C208.674 243.77 209.185 243.916 209.758 243.916ZM209.66 245.176C208.801 245.176 208.016 244.964 207.307 244.541C206.447 244.033 205.848 243.229 205.51 242.129C205.314 241.517 205.217 240.892 205.217 240.254C205.217 239.616 205.249 239.066 205.314 238.604C205.38 238.141 205.493 237.663 205.656 237.168C205.819 236.673 206.024 236.211 206.271 235.781C206.525 235.352 206.851 234.938 207.248 234.541C207.645 234.137 208.098 233.783 208.605 233.477C209.719 232.812 211.096 232.406 212.736 232.256L212.883 233.516C211.294 233.659 209.992 234.108 208.977 234.863C207.961 235.618 207.303 236.676 207.004 238.037C207.277 237.744 207.671 237.513 208.186 237.344C208.7 237.174 209.227 237.09 209.768 237.09C210.907 237.09 211.851 237.448 212.6 238.164C213.355 238.874 213.732 239.814 213.732 240.986C213.732 242.152 213.371 243.141 212.648 243.955C211.926 244.769 210.93 245.176 209.66 245.176Z" fill="#633DAF"/>
</svg>
